<svg width="24" height="24" viewBox="0 0 24 24" fill="none" xmlns="http://www.w3.org/2000/svg">
<path d="M12.5862 23.2986L16.4788 12.5567C16.5373 12.3811 16.5666 12.1957 16.5665 12.0006L13.6688 11.9993C13.6688 12.4489 13.503 12.8395 13.1713 13.1713C12.8396 13.503 12.4493 13.6684 12.0005 13.6676L12.0009 23.7365C12.2936 23.7372 12.4887 23.5913 12.5862 23.2986Z" fill="#B3B3B3"/>
<path d="M7.43435 12.0003C7.43436 12.1954 7.46364 12.3808 7.52218 12.5564L11.4154 23.2986C11.513 23.5913 11.7082 23.7372 12.0009 23.7365L12.0005 13.6676C11.5517 13.6684 11.1614 13.5029 10.8297 13.1712C10.498 12.8394 10.3321 12.4488 10.3321 11.9992L7.43435 12.0003Z" fill="#999999"/>
<g style="mix-blend-mode:plus-lighter">
<path d="M16.5665 12.0006C16.5665 11.8054 16.5373 11.6201 16.4787 11.4444L12.5855 0.702279C12.4879 0.409577 12.2927 0.263612 12 0.264382L12.0004 10.3309C12.4492 10.3317 12.8395 10.4979 13.1712 10.8297C13.5029 11.1614 13.6688 11.5513 13.6688 11.9993L16.5665 12.0006Z" fill="#E6E6E6"/>
</g>
<path d="M12 0.264382C11.7073 0.263591 11.5122 0.409543 11.4147 0.702238L7.52214 11.4441C7.46361 11.6198 7.43435 11.8051 7.43435 12.0003L10.3321 11.9992C10.3321 11.5512 10.4979 11.1613 10.8296 10.8296C11.1613 10.4979 11.5516 10.3316 12.0004 10.3309L12 0.264382Z" fill="white"/>
</svg>
