<svg width="512" height="512" viewBox="0 0 512 512" fill="none" xmlns="http://www.w3.org/2000/svg">
<g clip-path="url(#clip0_1375_138)">
<path d="M94.2434 291.548V159.567C94.2434 147.489 84.3612 137.607 72.2831 137.607C60.2049 137.607 50.3228 147.489 50.3228 159.567V291.548H11.0139C1.13172 291.548 -3.69956 303.407 3.32774 310.215L64.597 371.264C68.989 375.437 75.7967 375.437 80.1888 371.264L141.458 310.215C148.485 303.407 143.434 291.548 133.772 291.548H94.2434Z" fill="white"/>
<path d="M357.209 101.364C271.85 101.364 202.727 170.641 202.727 256C202.727 341.359 271.85 410.636 357.209 410.636C442.723 410.636 512 341.359 512 256C512 170.641 442.723 101.364 357.209 101.364ZM357.364 379.709C289.014 379.709 233.655 324.349 233.655 256C233.655 187.651 289.014 132.291 357.364 132.291C425.713 132.291 481.073 187.651 481.073 256C481.073 324.349 425.713 379.709 357.364 379.709ZM353.962 178.682H353.034C346.848 178.682 341.9 183.63 341.9 189.816V262.804C341.9 268.216 344.684 273.319 349.477 276.103L413.651 314.607C418.909 317.7 425.713 316.154 428.806 310.896C432.053 305.638 430.352 298.68 424.94 295.587L365.096 260.021V189.816C365.096 183.63 360.147 178.682 353.962 178.682Z" fill="white"/>
</g>
<defs>
<clipPath id="clip0_1375_138">
<rect width="512" height="512" fill="white"/>
</clipPath>
</defs>
</svg>
