<svg width="512" height="512" viewBox="0 0 512 512" fill="none" xmlns="http://www.w3.org/2000/svg">
<g clip-path="url(#clip0_1375_142)">
<path d="M90.0004 289.948V163.908C90.0004 152.374 80.5632 142.937 69.0288 142.937C57.4944 142.937 48.0572 152.374 48.0572 163.908V289.948H10.518C1.08077 289.948 -3.533 301.273 3.17792 307.774L61.6887 366.075C65.8831 370.059 72.3843 370.059 76.5786 366.075L135.089 307.774C141.8 301.273 136.977 289.948 127.749 289.948H90.0004Z" fill="#E8EAED"/>
<path d="M213.789 210.99C202.753 210.99 193.6 200.795 193.6 188.501C193.6 176.207 202.753 166.013 213.789 166.013H247.437C262.242 166.013 274.356 179.506 274.356 195.997V323.432C274.356 335.726 265.203 345.921 254.167 345.921C243.13 345.921 233.978 335.726 233.978 323.432V210.99H213.789Z" fill="white"/>
<rect x="199.64" y="309.068" width="104.716" height="36.9186" rx="18.4593" fill="white"/>
<rect x="322.816" y="241.008" width="59.9693" height="29.9847" rx="14.9923" fill="white"/>
<path fill-rule="evenodd" clip-rule="evenodd" d="M475.081 166.011H438.163C417.858 166.011 401.244 182.209 401.244 202.007V238.002C401.244 257.8 417.858 273.998 438.163 273.998H475.081V309.993H419.703C409.551 309.993 401.244 318.092 401.244 327.991C401.244 337.89 409.551 345.989 419.703 345.989H475.081C495.387 345.989 512 329.791 512 309.993V202.007C512 182.209 495.387 166.011 475.081 166.011ZM438.163 238.002H475.081C475.081 238.939 475.081 202.007 475.081 202.007H438.163V238.002Z" fill="white"/>
</g>
<defs>
<clipPath id="clip0_1375_142">
<rect width="512" height="512" fill="white"/>
</clipPath>
</defs>
</svg>
