<svg width="24" height="26" viewBox="0 0 24 26" fill="none" xmlns="http://www.w3.org/2000/svg">
<path d="M12.282 5.53846C13.3359 5.53846 14.657 4.8061 15.4437 3.82962C16.1562 2.94469 16.6758 1.70884 16.6758 0.472981C16.6758 0.305149 16.6609 0.137317 16.6312 0C15.4586 0.0457724 14.0484 0.808645 13.2023 1.8309C12.5344 2.60903 11.9258 3.82963 11.9258 5.08074C11.9258 5.26383 11.9555 5.44692 11.9703 5.50795C12.0445 5.5232 12.1633 5.53846 12.282 5.53846ZM8.57109 24C10.0109 24 10.6492 23.0083 12.4453 23.0083C14.2711 23.0083 14.6719 23.9695 16.275 23.9695C17.8484 23.9695 18.9023 22.4743 19.8969 21.0095C21.0102 19.3312 21.4703 17.6834 21.5 17.6071C21.3961 17.5766 18.3828 16.3102 18.3828 12.7552C18.3828 9.67324 20.7578 8.28481 20.8914 8.178C19.318 5.85887 16.9281 5.79784 16.275 5.79784C14.5086 5.79784 13.0688 6.89638 12.1633 6.89638C11.1836 6.89638 9.89219 5.85887 8.36328 5.85887C5.45391 5.85887 2.5 8.33058 2.5 12.9994C2.5 15.8983 3.59844 18.965 4.94922 20.9485C6.10703 22.6268 7.11641 24 8.57109 24Z" fill="white"/>
</svg>
