<svg width="24" height="24" viewBox="0 0 24 24" fill="none" xmlns="http://www.w3.org/2000/svg">
<g clip-path="url(#clip0_710_8)">
<path d="M23.49 12.27C23.49 11.48 23.42 10.73 23.3 10H12V14.51H18.47C18.18 15.99 17.33 17.24 16.07 18.09V21.09H19.93C22.19 19 23.49 15.92 23.49 12.27Z" fill="#4285F4"/>
<path d="M12 24.0005C15.24 24.0005 17.95 22.9205 19.93 21.0905L16.07 18.0905C14.99 18.8105 13.62 19.2505 12 19.2505C8.87004 19.2505 6.22004 17.1405 5.27004 14.2905H1.29004V17.3805C3.26004 21.3005 7.31004 24.0005 12 24.0005Z" fill="#34A853"/>
<path d="M5.27 14.2901C5.02 13.5701 4.89 12.8001 4.89 12.0001C4.89 11.2001 5.03 10.4301 5.27 9.71012V6.62012H1.29C0.469999 8.24012 0 10.0601 0 12.0001C0 13.9401 0.469999 15.7601 1.29 17.3801L5.27 14.2901Z" fill="#FBBC05"/>
<path d="M12 4.75C13.77 4.75 15.35 5.36 16.6 6.55L20.02 3.13C17.95 1.19 15.24 0 12 0C7.31004 0 3.26004 2.7 1.29004 6.62L5.27004 9.71C6.22004 6.86 8.87004 4.75 12 4.75Z" fill="#EA4335"/>
</g>
<defs>
<clipPath id="clip0_710_8">
<rect width="24" height="24" fill="white"/>
</clipPath>
</defs>
</svg>
