<svg xmlns="http://www.w3.org/2000/svg" width="342.279" height="264.906" viewBox="0 0 342.279 264.906"><g transform="translate(0 0)"><ellipse cx="18.225" cy="37.187" rx="18.225" ry="37.187" transform="translate(243.795 166.762)" fill="#3f3d56"/><path d="M835.024,656.29c7.3-43.795.073-87.432,0-87.867l-1.42.24c.073.433,7.258,43.841,0,87.39Z" transform="translate(-574.687 -391.472)" fill="#cacaca"/><rect width="1.44" height="18.69" transform="translate(245.294 197.224) rotate(-61.858)" fill="#cacaca"/><rect width="18.691" height="1.44" transform="translate(262.69 209.19) rotate(-28.158)" fill="#cacaca"/><ellipse cx="35.646" cy="72.733" rx="35.646" ry="72.733" transform="translate(270.164 72.363)" fill="#e6e6e6"/><path d="M945.474,515.052c14.258-85.544.144-170.778,0-171.629l-1.42.241c.144.849,14.216,85.853,0,171.152Z" transform="translate(-643.634 -251.017)" fill="#cacaca"/><rect width="1.44" height="36.556" transform="translate(273.421 131.334) rotate(-61.858)" fill="#cacaca"/><rect width="36.556" height="1.44" transform="translate(307.446 155.948) rotate(-28.158)" fill="#cacaca"/><path d="M418.714,593.01h-189.6a2.633,2.633,0,0,1-2.63-2.63V470.572a2.633,2.633,0,0,1,2.63-2.63h189.6a2.633,2.633,0,0,1,2.63,2.63V590.38a2.633,2.633,0,0,1-2.63,2.63Z" transform="translate(-195.692 -328.747)" fill="#e4e4e4"/><path d="M278.011,506.579a1.128,1.128,0,0,0-1.127,1.127v93.778a1.128,1.128,0,0,0,1.127,1.127H432.742a1.129,1.129,0,0,0,1.127-1.127V507.706a1.128,1.128,0,0,0-1.127-1.127Z" transform="translate(-227.157 -352.866)" fill="#fff"/><path d="M430.645,530.108v-5.943H408.764V505.579h-5.943v18.587H363.865V505.579h-5.942v18.587H297.837V505.579h-5.943v18.587H271.117v5.942h20.777v23.11H271.117v5.943h20.777v24.76H271.117v5.942h52.8v12.5h5.943v-12.5h28.062v12.5h5.942v-12.5h66.781v-5.943H363.865v-24.76h66.781v-5.943H408.764v-23.11Zm-72.723,0v7.263H297.837v-7.263Zm-60.086,13.206h60.086v9.9H297.837Zm0,40.607v-24.76h26.081v24.76Zm60.086,0H329.86v-24.76h28.062Zm44.9-30.7H363.865v-23.11h38.956Z" transform="translate(-223.557 -352.242)" fill="#e6e6e6"/><circle cx="7.593" cy="7.593" r="7.593" transform="translate(129.743 197.106)" fill="#7e6bff"/><path d="M342.13,703.634H0v-.82H342.279Z" transform="translate(0 -438.728)" fill="#cacaca"/><circle cx="46.84" cy="46.84" r="46.84" transform="translate(91.407 65.912)" fill="#7e6bff"/><path d="M319.967,418.131l-14.8-25.279-14.8-25.279,29.291-.176,29.291-.176L334.46,392.676Z" transform="translate(-181.263 -229.236)" fill="#7e6bff"/><circle cx="16.805" cy="16.805" r="16.805" transform="translate(121.817 95.652)" fill="#fff"/><path d="M485.227,97.743s-10.023-2.823-12.987,10.87-1.082,11.968-1.082,11.968l22.375-2.612S500.261,101.907,485.227,97.743Z" transform="translate(-348.064 -97.502)" fill="#2f2e41"/><path d="M449.511,258.012s-15.121.7-12.5,6.635q.278.629.517,1.179a106.163,106.163,0,0,0,6.449,12.484l9.294,15.4,3.382-1.879-9.517-24.739,8.554-.7Z" transform="translate(-326.924 -197.7)" fill="#ffb6b6"/><path d="M558.91,273.582l4.888,10.649s3.666,3.666,7.681,18.33,4.888,14.14,4.888,14.14l-3.969,1.322-16.282-29.6-8.03-10.125,2.444-5.412Z" transform="translate(-396.454 -206.983)" fill="#ffb6b6"/><path d="M482.847,235.84l7.024,13.073S505.8,280.205,504.15,280.1c-1.85-.117-7.047,2.04-8.642,4.133-.77,1.011-12.024-23.673-15.977-29.191l-8.554-6.634s-24.287,4.088-24.317,2.758c-.015-.651,8.041,14.971,6.388,14.279-1.883-.789-6.314,3.049-8.267,2.255-.806-.328-6.5-14.133-8.8-19.79a3.062,3.062,0,0,1,1.416-3.874c1.732-.9,25.8-6.4,25.8-6.4l-.421-2.15L464.517,232Z" transform="translate(-326.327 -181.462)" fill="#2f2e41"/><circle cx="6.808" cy="6.808" r="6.808" transform="translate(127.586 20.38) rotate(-80.783)" fill="#ffb6b6"/><path d="M510.937,188.746c.376,1.128-2.059,1.776-5.452,1.142-2.936-.548-6.15-1.2-8.685-1.726-2.715-.566-4.654-.988-4.654-.988s-.7,4.364-2.968,3.841c-1.955-.45-7.8-20.859-9.378-26.5a1.962,1.962,0,0,1,.868-2.2l8.025-4.9s5.53-1.9,7.547-1.953,5.508-.578,5.508-.578,4.015.349,4.713,3.317,3.612,20.563,3.666,24.789C510.186,187.619,509.81,185.365,510.937,188.746Z" transform="translate(-353.781 -133.319)" fill="#cacaca"/><path d="M493.6,113.485s-2.823,7.482-9.74,10.587l-1.129-6.635Z" transform="translate(-355.653 -107.479)" fill="#2f2e41"/><ellipse cx="0.96" cy="1.833" rx="0.96" ry="1.833" transform="translate(141.071 10.3)" fill="#ffb6b6"/><path d="M473.844,348.647l-13.5,6.2-.078-.171a5.782,5.782,0,0,1,2.838-7.668h0l8.243-3.79Z" transform="translate(-341.304 -250.892)" fill="#2f2e41"/><path d="M607.433,383.639l8.279-3.711h0a5.782,5.782,0,0,1,7.641,2.911l.077.171-13.554,6.076Z" transform="translate(-433.501 -273.488)" fill="#2f2e41"/><path d="M400.615,104.51l-1.58,17.383,2.809.133Z" transform="translate(-249.096 -65.24)" opacity="0.2"/><path d="M495.549,228.824a3.433,3.433,0,0,0-.751-5.21l-6.072-30.671-6.973,2.668,8.161,29.31a3.451,3.451,0,0,0,5.635,3.9Z" transform="translate(-355.046 -157.081)" fill="#ffb6b6"/><path d="M488.223,185.306l-7.656,1.348a1.539,1.539,0,0,1-1.806-1.474l-.211-7.748a4.275,4.275,0,0,1,8.424-1.458l2.442,7.329a1.539,1.539,0,0,1-1.193,2Z" transform="translate(-353.007 -144.274)" fill="#cacaca"/><path d="M525.505,226.9a3.433,3.433,0,0,0,.959-5.176l4.084-31-7.46.291L521.42,221.4a3.451,3.451,0,0,0,4.085,5.5Z" transform="translate(-379.132 -155.697)" fill="#ffb6b6"/><path d="M532.037,181.52l-7.684-1.178a1.539,1.539,0,0,1-1.238-1.975l2.284-7.406a4.275,4.275,0,0,1,8.447,1.32l-.037,7.725a1.539,1.539,0,0,1-1.772,1.514Z" transform="translate(-380.823 -141.101)" fill="#cacaca"/></g></svg>