<svg xmlns="http://www.w3.org/2000/svg" xmlns:xlink="http://www.w3.org/1999/xlink" width="233.604" height="199.28" viewBox="0 0 233.604 199.28"><defs><linearGradient id="a" x1="0.055" y1="0.968" x2="0.872" y2="0.068" gradientUnits="objectBoundingBox"><stop offset="0" stop-color="#7e6bff"/><stop offset="1" stop-color="#9d4cef"/></linearGradient></defs><path d="M18.312,0a2.1,2.1,0,0,1-1.54-.644,2.1,2.1,0,0,1-.644-1.54V-43.736H20.5V-2.184a2.15,2.15,0,0,1-.616,1.54A2.076,2.076,0,0,1,18.312,0ZM2.856-39.76A1.97,1.97,0,0,1,1.4-40.32a1.9,1.9,0,0,1-.56-1.4,1.97,1.97,0,0,1,.56-1.456,1.97,1.97,0,0,1,1.456-.56H33.824a1.97,1.97,0,0,1,1.456.56,1.97,1.97,0,0,1,.56,1.456,1.9,1.9,0,0,1-.56,1.4,1.97,1.97,0,0,1-1.456.56ZM36.092-18.872a13.076,13.076,0,0,1,1.82-6.216A12.232,12.232,0,0,1,42.224-29.4a11.417,11.417,0,0,1,5.908-1.568,8.782,8.782,0,0,1,3.976.728,1.757,1.757,0,0,1,1.064,2.128,1.66,1.66,0,0,1-.756,1.12,2.351,2.351,0,0,1-1.288.224q-.756-.056-1.708-.112a12.454,12.454,0,0,0-5.572.644,8.439,8.439,0,0,0-3.864,2.828,7.346,7.346,0,0,0-1.428,4.536ZM36.428,0A2.12,2.12,0,0,1,34.86-.56a2.12,2.12,0,0,1-.56-1.568V-28.5a2.12,2.12,0,0,1,.56-1.568,2.12,2.12,0,0,1,1.568-.56,2.12,2.12,0,0,1,1.568.56,2.12,2.12,0,0,1,.56,1.568V-2.128A2.12,2.12,0,0,1,38-.56,2.12,2.12,0,0,1,36.428,0Zm35.2.28A14.758,14.758,0,0,1,63.9-1.764a14.893,14.893,0,0,1-5.4-5.572A15.914,15.914,0,0,1,56.5-15.288,15.68,15.68,0,0,1,58.548-23.3a15.056,15.056,0,0,1,5.572-5.572,15.571,15.571,0,0,1,7.952-2.044A15.419,15.419,0,0,1,80-28.868,15.12,15.12,0,0,1,85.54-23.3a16.093,16.093,0,0,1,2.1,8.008L85.9-13.944a14.138,14.138,0,0,1-1.876,7.252,13.9,13.9,0,0,1-5.1,5.1A14.247,14.247,0,0,1,71.624.28Zm.448-3.92a11.139,11.139,0,0,0,5.8-1.512A10.964,10.964,0,0,0,81.9-9.324a12.03,12.03,0,0,0,1.484-5.964A11.987,11.987,0,0,0,81.9-21.28a11.235,11.235,0,0,0-4.032-4.172,10.983,10.983,0,0,0-5.8-1.54,11.025,11.025,0,0,0-5.768,1.54,11.382,11.382,0,0,0-4.088,4.172A11.811,11.811,0,0,0,60.7-15.288a11.854,11.854,0,0,0,1.512,5.964A11.106,11.106,0,0,0,66.3-5.152,11.181,11.181,0,0,0,72.072-3.64ZM85.456,0a2.179,2.179,0,0,1-1.568-.588,2.032,2.032,0,0,1-.616-1.54V-11.7l1.064-4.424,3.3.84v13.16a2.032,2.032,0,0,1-.616,1.54A2.179,2.179,0,0,1,85.456,0Zm37.268,0a2.124,2.124,0,0,1-1.568-.616,2.056,2.056,0,0,1-.616-1.512v-14.56a11.151,11.151,0,0,0-1.316-5.712,8.4,8.4,0,0,0-3.584-3.36,11.418,11.418,0,0,0-5.124-1.12,11.287,11.287,0,0,0-4.956,1.064,8.828,8.828,0,0,0-3.5,2.912,7.168,7.168,0,0,0-1.288,4.2h-3.08A12.08,12.08,0,0,1,99.6-25a12.767,12.767,0,0,1,4.76-4.368,13.727,13.727,0,0,1,6.608-1.6,15.026,15.026,0,0,1,7.112,1.652,12.132,12.132,0,0,1,4.956,4.844,15.49,15.49,0,0,1,1.82,7.784v14.56a2.056,2.056,0,0,1-.616,1.512A2.056,2.056,0,0,1,122.724,0ZM98.644,0a2.157,2.157,0,0,1-1.6-.588,2.083,2.083,0,0,1-.588-1.54v-26.32a2.157,2.157,0,0,1,.588-1.6,2.157,2.157,0,0,1,1.6-.588,2.083,2.083,0,0,1,1.54.588,2.157,2.157,0,0,1,.588,1.6v26.32a2.083,2.083,0,0,1-.588,1.54A2.083,2.083,0,0,1,98.644,0Zm46.844.28a19.978,19.978,0,0,1-6.552-1.12,12.321,12.321,0,0,1-5.264-3.36,1.8,1.8,0,0,1-.5-1.512,2.267,2.267,0,0,1,.84-1.456,2.221,2.221,0,0,1,1.624-.448,2.232,2.232,0,0,1,1.4.728,8.59,8.59,0,0,0,3.556,2.408,13.7,13.7,0,0,0,4.9.84q4.144,0,5.992-1.428a4.4,4.4,0,0,0,1.9-3.444,3.925,3.925,0,0,0-1.9-3.332,16.185,16.185,0,0,0-6.272-2.044q-5.656-.9-8.288-3.136a6.783,6.783,0,0,1-2.632-5.32A7.415,7.415,0,0,1,135.8-27.1a9.142,9.142,0,0,1,4.032-2.856,15.572,15.572,0,0,1,5.544-.952,14.973,14.973,0,0,1,6.468,1.288,11.825,11.825,0,0,1,4.4,3.472,1.963,1.963,0,0,1,.448,1.512,1.815,1.815,0,0,1-.9,1.288,2.254,2.254,0,0,1-1.54.252,2.508,2.508,0,0,1-1.484-.812,8.519,8.519,0,0,0-3.248-2.38,11.172,11.172,0,0,0-4.256-.756,8.608,8.608,0,0,0-4.928,1.26,3.727,3.727,0,0,0-1.848,3.164,3.678,3.678,0,0,0,.7,2.24A5.686,5.686,0,0,0,141.6-18.7a21.58,21.58,0,0,0,4.788,1.232,21.255,21.255,0,0,1,6.636,1.988,8.624,8.624,0,0,1,3.472,3.08,7.441,7.441,0,0,1,1.036,3.836,7.331,7.331,0,0,1-1.54,4.62A10.116,10.116,0,0,1,151.732-.84,16.272,16.272,0,0,1,145.488.28ZM168.476,0a2.157,2.157,0,0,1-1.6-.588,2.157,2.157,0,0,1-.588-1.6V-28.448a2.157,2.157,0,0,1,.588-1.6,2.157,2.157,0,0,1,1.6-.588,2.083,2.083,0,0,1,1.54.588,2.157,2.157,0,0,1,.588,1.6V-2.184a2.157,2.157,0,0,1-.588,1.6A2.083,2.083,0,0,1,168.476,0Zm-.056-36.456a2.907,2.907,0,0,1-2.128-.9,2.972,2.972,0,0,1-.9-2.184,2.794,2.794,0,0,1,.924-2.212,3.164,3.164,0,0,1,2.156-.812,3.094,3.094,0,0,1,2.1.812,2.794,2.794,0,0,1,.924,2.212,2.972,2.972,0,0,1-.9,2.184A2.972,2.972,0,0,1,168.42-36.456ZM193.984,0a10.053,10.053,0,0,1-5.292-1.4,10.067,10.067,0,0,1-3.668-3.836,11.342,11.342,0,0,1-1.344-5.572V-38.192a2.179,2.179,0,0,1,.588-1.568,2.032,2.032,0,0,1,1.54-.616,2.124,2.124,0,0,1,1.568.616,2.124,2.124,0,0,1,.616,1.568v27.384a6.623,6.623,0,0,0,1.68,4.676,5.605,5.605,0,0,0,4.312,1.82H195.5a1.876,1.876,0,0,1,1.456.616,2.242,2.242,0,0,1,.56,1.568,1.948,1.948,0,0,1-.672,1.54A2.459,2.459,0,0,1,195.16,0ZM180.04-25.76a1.953,1.953,0,0,1-1.4-.532,1.742,1.742,0,0,1-.56-1.316,1.808,1.808,0,0,1,.56-1.372,1.953,1.953,0,0,1,1.4-.532h14.28a1.953,1.953,0,0,1,1.4.532,1.808,1.808,0,0,1,.56,1.372,1.743,1.743,0,0,1-.56,1.316,1.953,1.953,0,0,1-1.4.532ZM218.876.28a15.851,15.851,0,0,1-8.008-2.016,14.641,14.641,0,0,1-5.544-5.544,15.851,15.851,0,0,1-2.016-8.008,15.963,15.963,0,0,1,2.016-8.064,14.641,14.641,0,0,1,5.544-5.544,15.851,15.851,0,0,1,8.008-2.016,15.7,15.7,0,0,1,7.98,2.016,14.7,14.7,0,0,1,5.516,5.544,16.383,16.383,0,0,1,2.072,8.064A15.68,15.68,0,0,1,232.4-7.28a14.907,14.907,0,0,1-5.544,5.544A15.7,15.7,0,0,1,218.876.28Zm0-3.92A11.289,11.289,0,0,0,224.7-5.152,10.752,10.752,0,0,0,228.732-9.3a12.17,12.17,0,0,0,1.456-5.992,12.33,12.33,0,0,0-1.456-6.02A10.7,10.7,0,0,0,224.7-25.48a11.289,11.289,0,0,0-5.824-1.512,11.289,11.289,0,0,0-5.824,1.512,10.9,10.9,0,0,0-4.06,4.172,12.144,12.144,0,0,0-1.484,6.02A11.987,11.987,0,0,0,208.992-9.3a10.956,10.956,0,0,0,4.06,4.144A11.288,11.288,0,0,0,218.876-3.64Z" transform="translate(-0.84 199)" fill="#7e6bff"/><g transform="translate(66.16)"><path d="M0,0H137.179V137.179H0Z" fill="none"/><path d="M94.4,1.724a40.05,40.05,0,0,0-40.7,16.69c.057-.057.057-.114.114-.171-2.286-.114-4.687-.114-7.088-.114C21.463,18.129,1,20.987,1,40.992V98.15a17.067,17.067,0,0,0,5.716,12.689v7.316a8.574,8.574,0,1,0,17.147,0V115.3H69.59v2.858a8.574,8.574,0,1,0,17.147,0v-7.316A17.067,17.067,0,0,0,92.453,98.15v-17.6A39.983,39.983,0,0,0,94.4,1.724ZM21.005,103.866a8.574,8.574,0,1,1,8.574-8.574A8.562,8.562,0,0,1,21.005,103.866ZM12.432,69.571V40.992H46.726a39.837,39.837,0,0,0,12.06,28.579Zm60.016,34.295a8.574,8.574,0,1,1,8.574-8.574A8.562,8.562,0,0,1,72.447,103.866Zm14.29-34.295a28.579,28.579,0,1,1,28.579-28.579A28.589,28.589,0,0,1,86.737,69.571ZM85.308,18.129a4.318,4.318,0,0,0-4.287,4.287V43.45a5.783,5.783,0,0,0,2.8,4.916L98.226,57a4.126,4.126,0,0,0,5.6-1.372,4.06,4.06,0,0,0-1.429-5.659l-12.8-7.545V22.416A4.318,4.318,0,0,0,85.308,18.129Z" transform="translate(4.716 4.734)" fill="url(#a)"/></g></svg>