<svg width="672" height="607" viewBox="0 0 672 607" fill="none" xmlns="http://www.w3.org/2000/svg">
<path d="M482.478 3.21792C430.753 -6.45881 383.427 16.4135 357.212 54.5926C357.388 54.4166 357.388 54.2407 357.564 54.0647C350.527 53.7129 343.138 53.7129 335.748 53.7129C257.985 53.7129 195 62.5099 195 124.089V300.03C195 315.512 201.861 329.412 212.594 339.089V361.609C212.594 376.212 224.381 388 238.984 388C253.586 388 265.374 376.212 265.374 361.609V352.812H406.122V361.609C406.122 376.036 417.91 388 432.513 388C446.939 388 458.903 376.212 458.903 361.609V339.089C469.635 329.412 476.496 315.512 476.496 300.03V245.84C541.944 236.339 590.854 175.816 580.65 105.615C573.261 54.5926 533.148 12.5428 482.478 3.21792ZM256.577 317.624C241.975 317.624 230.187 305.836 230.187 291.233C230.187 276.63 241.975 264.842 256.577 264.842C271.18 264.842 282.968 276.63 282.968 291.233C282.968 305.836 271.18 317.624 256.577 317.624ZM234.645 212.059C232.183 212.059 230.187 210.063 230.187 207.601V128.547C230.187 126.085 232.183 124.089 234.645 124.089H334.634C335.249 124.089 335.748 124.59 335.753 125.206C336.048 158.264 349.439 188.183 370.935 210.126C371.634 210.84 371.134 212.059 370.135 212.059H234.645ZM414.919 317.624C400.316 317.624 388.529 305.836 388.529 291.233C388.529 276.63 400.316 264.842 414.919 264.842C429.522 264.842 441.309 276.63 441.309 291.233C441.309 305.836 429.522 317.624 414.919 317.624ZM458.903 212.059C410.345 212.059 370.935 172.649 370.935 124.089C370.935 75.5295 410.345 36.1188 458.903 36.1188C507.461 36.1188 546.871 75.5295 546.871 124.089C546.871 172.649 507.461 212.059 458.903 212.059ZM454.505 53.7129C447.291 53.7129 441.309 59.6948 441.309 66.9084V131.655C441.309 137.812 444.652 143.618 449.93 146.785L494.266 173.352C500.248 176.871 507.989 174.936 511.508 169.13C515.202 163.148 513.267 155.231 507.109 151.712L467.7 128.488V66.9084C467.7 59.6948 461.718 53.7129 454.505 53.7129Z" fill="url(#paint0_radial_774_27)"/>
<path d="M52.32 570C50.6133 570 49.12 569.413 47.84 568.24C46.6667 566.96 46.08 565.467 46.08 563.76V445.04H58.56V563.76C58.56 565.467 57.9733 566.96 56.8 568.24C55.6267 569.413 54.1333 570 52.32 570ZM8.16 456.4C6.45333 456.4 5.06667 455.867 4 454.8C2.93333 453.733 2.4 452.4 2.4 450.8C2.4 449.093 2.93333 447.707 4 446.64C5.06667 445.573 6.45333 445.04 8.16 445.04H96.64C98.3467 445.04 99.7333 445.573 100.8 446.64C101.867 447.707 102.4 449.093 102.4 450.8C102.4 452.4 101.867 453.733 100.8 454.8C99.7333 455.867 98.3467 456.4 96.64 456.4H8.16ZM102.02 516.08C102.34 509.467 104.047 503.547 107.14 498.32C110.34 493.093 114.447 488.987 119.46 486C124.58 483.013 130.233 481.52 136.42 481.52C141.327 481.52 145.113 482.213 147.78 483.6C150.447 484.987 151.46 487.013 150.82 489.68C150.393 491.28 149.647 492.347 148.58 492.88C147.62 493.413 146.393 493.627 144.9 493.52C143.513 493.413 141.913 493.307 140.1 493.2C134.127 492.667 128.793 493.307 124.1 495.12C119.513 496.827 115.833 499.493 113.06 503.12C110.393 506.747 109.06 511.067 109.06 516.08H102.02ZM102.98 570C101.06 570 99.5667 569.467 98.5 568.4C97.4333 567.333 96.9 565.84 96.9 563.92V488.56C96.9 486.64 97.4333 485.147 98.5 484.08C99.5667 483.013 101.06 482.48 102.98 482.48C104.9 482.48 106.393 483.013 107.46 484.08C108.527 485.147 109.06 486.64 109.06 488.56V563.92C109.06 565.84 108.527 567.333 107.46 568.4C106.393 569.467 104.9 570 102.98 570ZM202.335 570.8C194.122 570.8 186.762 568.88 180.255 565.04C173.748 561.093 168.575 555.76 164.735 549.04C161.002 542.32 159.135 534.747 159.135 526.32C159.135 517.787 161.055 510.16 164.895 503.44C168.842 496.72 174.175 491.44 180.895 487.6C187.615 483.653 195.188 481.68 203.615 481.68C212.042 481.68 219.562 483.653 226.175 487.6C232.895 491.44 238.175 496.72 242.015 503.44C245.962 510.16 247.988 517.787 248.095 526.32L243.135 530.16C243.135 537.84 241.322 544.773 237.695 550.96C234.175 557.04 229.322 561.893 223.135 565.52C217.055 569.04 210.122 570.8 202.335 570.8ZM203.615 559.6C209.802 559.6 215.295 558.16 220.095 555.28C225.002 552.4 228.842 548.453 231.615 543.44C234.495 538.32 235.935 532.613 235.935 526.32C235.935 519.92 234.495 514.213 231.615 509.2C228.842 504.187 225.002 500.24 220.095 497.36C215.295 494.373 209.802 492.88 203.615 492.88C197.535 492.88 192.042 494.373 187.135 497.36C182.228 500.24 178.335 504.187 175.455 509.2C172.575 514.213 171.135 519.92 171.135 526.32C171.135 532.613 172.575 538.32 175.455 543.44C178.335 548.453 182.228 552.4 187.135 555.28C192.042 558.16 197.535 559.6 203.615 559.6ZM241.855 570C240.042 570 238.548 569.467 237.375 568.4C236.202 567.227 235.615 565.733 235.615 563.92V536.56L238.655 523.92L248.095 526.32V563.92C248.095 565.733 247.508 567.227 246.335 568.4C245.162 569.467 243.668 570 241.855 570ZM347.096 570C345.283 570 343.79 569.413 342.616 568.24C341.443 567.067 340.856 565.627 340.856 563.92V522.32C340.856 515.707 339.576 510.267 337.016 506C334.563 501.733 331.15 498.533 326.776 496.4C322.51 494.267 317.656 493.2 312.216 493.2C306.99 493.2 302.243 494.213 297.976 496.24C293.816 498.267 290.51 501.04 288.056 504.56C285.603 508.08 284.376 512.08 284.376 516.56H275.576C275.79 509.84 277.603 503.867 281.016 498.64C284.43 493.307 288.963 489.147 294.616 486.16C300.27 483.067 306.563 481.52 313.496 481.52C321.07 481.52 327.843 483.12 333.816 486.32C339.79 489.413 344.483 494 347.896 500.08C351.416 506.16 353.176 513.573 353.176 522.32V563.92C353.176 565.627 352.59 567.067 351.416 568.24C350.243 569.413 348.803 570 347.096 570ZM278.296 570C276.376 570 274.83 569.467 273.656 568.4C272.59 567.227 272.056 565.733 272.056 563.92V488.72C272.056 486.8 272.59 485.307 273.656 484.24C274.83 483.067 276.376 482.48 278.296 482.48C280.11 482.48 281.55 483.067 282.616 484.24C283.79 485.307 284.376 486.8 284.376 488.72V563.92C284.376 565.733 283.79 567.227 282.616 568.4C281.55 569.467 280.11 570 278.296 570ZM410.898 570.8C404.604 570.8 398.364 569.733 392.178 567.6C385.991 565.467 380.978 562.267 377.138 558C375.964 556.72 375.484 555.28 375.698 553.68C375.911 552.08 376.711 550.693 378.098 549.52C379.591 548.453 381.138 548.027 382.738 548.24C384.338 548.453 385.671 549.147 386.738 550.32C389.298 553.307 392.658 555.6 396.818 557.2C401.084 558.8 405.778 559.6 410.898 559.6C418.791 559.6 424.498 558.267 428.018 555.6C431.538 552.827 433.351 549.52 433.458 545.68C433.458 541.84 431.644 538.693 428.018 536.24C424.391 533.68 418.418 531.707 410.098 530.32C399.324 528.613 391.431 525.627 386.418 521.36C381.404 517.093 378.898 512.027 378.898 506.16C378.898 500.72 380.338 496.187 383.218 492.56C386.098 488.933 389.938 486.213 394.738 484.4C399.538 482.587 404.818 481.68 410.578 481.68C417.724 481.68 423.858 482.907 428.978 485.36C434.204 487.813 438.418 491.12 441.618 495.28C442.684 496.667 443.111 498.107 442.898 499.6C442.684 501.093 441.831 502.32 440.338 503.28C439.058 504.027 437.564 504.293 435.858 504.08C434.258 503.76 432.871 502.96 431.698 501.68C429.031 498.587 425.938 496.347 422.418 494.96C418.898 493.467 414.844 492.72 410.258 492.72C404.391 492.72 399.698 493.947 396.178 496.4C392.658 498.747 390.898 501.733 390.898 505.36C390.898 507.813 391.538 509.947 392.818 511.76C394.204 513.573 396.498 515.173 399.698 516.56C403.004 517.947 407.591 519.12 413.458 520.08C421.458 521.36 427.751 523.28 432.338 525.84C437.031 528.293 440.338 531.227 442.258 534.64C444.284 537.947 445.298 541.573 445.298 545.52C445.298 550.533 443.804 554.96 440.818 558.8C437.938 562.533 433.884 565.467 428.658 567.6C423.538 569.733 417.618 570.8 410.898 570.8ZM475.388 570C473.468 570 471.921 569.467 470.748 568.4C469.681 567.227 469.148 565.68 469.148 563.76V488.72C469.148 486.8 469.681 485.307 470.748 484.24C471.921 483.067 473.468 482.48 475.388 482.48C477.201 482.48 478.641 483.067 479.708 484.24C480.881 485.307 481.468 486.8 481.468 488.72V563.76C481.468 565.68 480.881 567.227 479.708 568.4C478.641 569.467 477.201 570 475.388 570ZM475.228 465.84C472.881 465.84 470.854 464.987 469.148 463.28C467.441 461.573 466.588 459.493 466.588 457.04C466.588 454.373 467.441 452.293 469.148 450.8C470.961 449.2 473.041 448.4 475.388 448.4C477.628 448.4 479.601 449.2 481.308 450.8C483.121 452.293 484.028 454.373 484.028 457.04C484.028 459.493 483.174 461.573 481.468 463.28C479.761 464.987 477.681 465.84 475.228 465.84ZM547.078 570C541.424 570 536.358 568.667 531.878 566C527.504 563.333 524.038 559.707 521.478 555.12C518.918 550.427 517.638 545.093 517.638 539.12V460.88C517.638 459.067 518.171 457.573 519.238 456.4C520.411 455.227 521.904 454.64 523.718 454.64C525.531 454.64 527.024 455.227 528.198 456.4C529.371 457.573 529.958 459.067 529.958 460.88V539.12C529.958 544.56 531.558 549.04 534.758 552.56C537.958 555.973 542.064 557.68 547.078 557.68H551.398C553.104 557.68 554.491 558.267 555.558 559.44C556.624 560.613 557.158 562.107 557.158 563.92C557.158 565.733 556.518 567.227 555.238 568.4C553.958 569.467 552.358 570 550.438 570H547.078ZM507.238 496.4C505.638 496.4 504.304 495.92 503.238 494.96C502.171 493.893 501.638 492.613 501.638 491.12C501.638 489.52 502.171 488.24 503.238 487.28C504.304 486.213 505.638 485.68 507.238 485.68H548.038C549.638 485.68 550.971 486.213 552.038 487.28C553.104 488.24 553.638 489.52 553.638 491.12C553.638 492.613 553.104 493.893 552.038 494.96C550.971 495.92 549.638 496.4 548.038 496.4H507.238ZM617.053 570.8C608.519 570.8 600.893 568.88 594.173 565.04C587.453 561.2 582.173 555.92 578.333 549.2C574.493 542.48 572.573 534.853 572.573 526.32C572.573 517.68 574.493 510 578.333 503.28C582.173 496.56 587.453 491.28 594.173 487.44C600.893 483.6 608.519 481.68 617.053 481.68C625.586 481.68 633.159 483.6 639.773 487.44C646.493 491.28 651.773 496.56 655.613 503.28C659.453 510 661.426 517.68 661.533 526.32C661.533 534.853 659.559 542.48 655.613 549.2C651.773 555.92 646.493 561.2 639.773 565.04C633.159 568.88 625.586 570.8 617.053 570.8ZM617.053 559.6C623.239 559.6 628.786 558.16 633.693 555.28C638.599 552.4 642.439 548.453 645.213 543.44C647.986 538.427 649.373 532.72 649.373 526.32C649.373 519.92 647.986 514.213 645.213 509.2C642.439 504.08 638.599 500.08 633.693 497.2C628.786 494.32 623.239 492.88 617.053 492.88C610.866 492.88 605.319 494.32 600.413 497.2C595.506 500.08 591.613 504.08 588.733 509.2C585.959 514.213 584.573 519.92 584.573 526.32C584.573 532.72 585.959 538.427 588.733 543.44C591.613 548.453 595.506 552.4 600.413 555.28C605.319 558.16 610.866 559.6 617.053 559.6Z" fill="#7E6BFF"/>
<defs>
<radialGradient id="paint0_radial_774_27" cx="0" cy="0" r="1" gradientUnits="userSpaceOnUse" gradientTransform="translate(458.346 133.844) rotate(136.017) scale(366.036 345.413)">
<stop stop-color="#8E85FF"/>
<stop offset="1" stop-color="#634DFF"/>
</radialGradient>
</defs>
</svg>
