<svg width="484" height="448" viewBox="0 0 484 448" fill="none" xmlns="http://www.w3.org/2000/svg">
<path d="M367.298 3.95886C307.761 -7.1792 253.288 19.1471 223.115 63.0919C223.317 62.8894 223.317 62.6868 223.52 62.4843C215.42 62.0793 206.914 62.0793 198.409 62.0793C108.902 62.0793 36.4058 72.2048 36.4058 143.083V345.594C36.4058 363.415 44.3034 379.413 56.6562 390.551V416.472C56.6562 433.281 70.224 446.849 87.0318 446.849C103.84 446.849 117.407 433.281 117.407 416.472V406.347H279.411V416.472C279.411 433.078 292.979 446.849 309.786 446.849C326.392 446.849 340.162 433.281 340.162 416.472V390.551C352.515 379.413 360.413 363.415 360.413 345.594V283.221C435.744 272.285 492.04 202.621 480.295 121.82C471.79 63.0919 425.619 14.6919 367.298 3.95886ZM107.282 365.845C90.4744 365.845 76.9066 352.277 76.9066 335.468C76.9066 318.66 90.4744 305.092 107.282 305.092C124.09 305.092 137.658 318.66 137.658 335.468C137.658 352.277 124.09 365.845 107.282 365.845ZM82.0381 244.339C79.204 244.339 76.9066 242.041 76.9066 239.207V148.215C76.9066 145.381 79.2041 143.083 82.0381 143.083H197.126C197.835 143.083 198.409 143.66 198.415 144.369C198.755 182.419 214.168 216.856 238.909 242.113C239.714 242.935 239.139 244.339 237.989 244.339H82.0381ZM289.536 365.845C272.728 365.845 259.16 352.277 259.16 335.468C259.16 318.66 272.728 305.092 289.536 305.092C306.344 305.092 319.912 318.66 319.912 335.468C319.912 352.277 306.344 365.845 289.536 365.845ZM340.162 244.339C284.271 244.339 238.91 198.976 238.91 143.083C238.91 87.1906 284.271 41.8283 340.162 41.8283C396.053 41.8283 441.414 87.1906 441.414 143.083C441.414 198.976 396.053 244.339 340.162 244.339ZM335.1 62.0793C326.797 62.0793 319.912 68.9647 319.912 77.2676V151.791C319.912 158.879 323.759 165.562 329.834 169.207L380.865 199.786C387.751 203.837 396.661 201.609 400.711 194.926C404.964 188.041 402.736 178.928 395.648 174.878L350.287 148.146V77.2676C350.287 68.9647 343.402 62.0793 335.1 62.0793Z" fill="url(#paint0_radial_774_30)"/>
<defs>
<radialGradient id="paint0_radial_774_30" cx="0" cy="0" r="1" gradientUnits="userSpaceOnUse" gradientTransform="translate(339.521 154.312) rotate(136.017) scale(421.313 397.575)">
<stop stop-color="#8E85FF"/>
<stop offset="1" stop-color="#634DFF"/>
</radialGradient>
</defs>
</svg>
